# xmcd
#
# Track frame offsets:
#	150
#	18189
#	37146
#	53599
#	71986
#	88876
#	105601
#	122436
#	140268
#	157451
#	174307
#	188030
#	205827
#	224610
#	239516
#
# Disc length: 3445 seconds
#
# Revision: 0
# Processed by: cddbd v1.5.2PL0 Copyright (c) Steve Scherf et al.
# Submitted via: audiograbber 1.83.01
#
DISCID=dd0d730f
DTITLE=Various Artist - CBCDG60222
DYEAR=2001
DGENRE=Karaoke
TTITLE0=Joe Diffie - In Another World
TTITLE1=Tim Rushlow - Crazy Life
TTITLE2=Reba McEntire - I'm A Survivor
TTITLE3=Clay Walker - If You Ever Feel Like Loving me Again
TTITLE4=Lila McCann - Because Of You
TTITLE5=Gary Allan - Man Of Me
TTITLE6=Patty Loveless and Travis Tritt - Out Of Control Raging Fire
TTITLE7=Billy Yates - Shadows
TTITLE8=Lorrie Moran and Sammy kershaw - I Finally Found Someone
TTITLE9=Pam Tillis - Thunder And Roses
TTITLE10=George Jones - The Man He Was
TTITLE11=Collin Raye - Ain't Nobody Gonna Take That From Me
TTITLE12=Tamara Walker - Angel Eyes
TTITLE13=Kenny Rogers - Beautiful All That You Could be
TTITLE14=3 Of Hearts - Arizona Rain
EXTD=
EXTT0=
EXTT1=
EXTT2=
EXTT3=
EXTT4=
EXTT5=
EXTT6=
EXTT7=
EXTT8=
EXTT9=
EXTT10=
EXTT11=
EXTT12=
EXTT13=
EXTT14=
PLAYORDER=
